<svg width="323" height="32" viewBox="0 0 323 32" fill="none" xmlns="http://www.w3.org/2000/svg">
<path d="M80.2895 26.7829V23.5745H80.1779C79.6756 25.3601 78.7825 26.0854 77.8337 26.5318C76.8848 26.9782 75.8802 27.2014 74.8755 27.2014C73.5918 27.2014 72.5592 27.034 71.7499 26.6992C70.9406 26.3644 70.2987 25.8901 69.8243 25.2764C69.3498 24.6626 69.0149 23.9093 68.8475 23.0445C68.6522 22.1517 68.5684 21.1752 68.5684 20.1151V9.45772H73.3127V19.2223C73.3127 20.6452 73.5359 21.7053 73.9825 22.4307C74.429 23.1561 75.2104 23.4908 76.3546 23.4908C77.6383 23.4908 78.5872 23.1003 79.1732 22.347C79.7593 21.5937 80.0384 20.3104 80.0384 18.5527V9.45772H84.7826V26.755H80.2616L80.2895 26.7829ZM93.7688 9.48562V12.6103H93.8246C94.2153 11.1595 95.1921 10.2389 96.0851 9.7367C96.9781 9.23453 97.9828 9.01133 99.127 9.01133C100.271 9.01133 101.22 9.23453 102.113 9.65301C103.006 10.0715 103.899 11.578 104.178 12.694C104.402 11.5501 105.378 10.4621 106.271 9.9041C107.164 9.31822 108.197 9.03923 109.397 9.03923C110.318 9.03923 111.155 9.15083 111.936 9.37402C112.718 9.59721 113.388 9.9599 113.946 10.4342C114.504 10.9364 114.95 11.578 115.257 12.3592C115.564 13.1404 115.732 14.1168 115.732 15.2328V26.8108H110.988V16.9904C110.988 16.4045 110.988 15.8745 110.932 15.3444C110.876 14.8422 110.764 14.3958 110.569 14.0052C110.374 13.6146 110.067 13.3357 109.676 13.1125C109.285 12.8893 108.755 12.7777 108.085 12.7777C107.415 12.7777 106.885 12.9172 106.467 13.1683C106.048 13.4194 105.741 13.7541 105.49 14.1726C105.267 14.5911 105.099 15.0654 105.015 15.5676C104.932 16.0976 104.904 16.6277 104.904 17.1578V26.8108H100.16V17.102C100.16 16.5998 100.16 16.0697 100.132 15.5676C100.132 15.0654 100.02 14.5911 99.8526 14.1726C99.6852 13.7541 99.4061 13.4194 99.0154 13.1404C98.6247 12.8614 98.0386 12.7498 97.2851 12.7498C97.0619 12.7498 96.7549 12.8056 96.3921 12.8893C96.0293 13.0009 95.6665 13.1683 95.3316 13.4473C94.9967 13.7262 94.6897 14.1168 94.4386 14.6469C94.1874 15.177 94.0758 15.8466 94.0758 16.7114V26.755H89.3315V9.45772H93.8246L93.7688 9.48562ZM124.83 9.48562V12.6103H124.886C125.276 11.299 126.253 10.2389 127.146 9.7367C128.039 9.23453 129.044 9.01133 130.188 9.01133C131.332 9.01133 132.281 9.23453 133.174 9.65301C134.067 10.0715 134.876 11.5501 135.239 12.694C135.518 11.6059 136.439 10.4621 137.332 9.9041C138.225 9.31822 139.258 9.03923 140.458 9.03923C141.379 9.03923 142.216 9.15083 142.997 9.37402C143.779 9.59721 144.449 9.9599 145.007 10.4342C145.565 10.9364 146.011 11.578 146.318 12.3592C146.625 13.1404 146.793 14.1168 146.793 15.2328V26.8108H142.049V16.9904C142.049 16.4045 142.049 15.8745 141.993 15.3444C141.937 14.8422 141.825 14.3958 141.63 14.0052C141.435 13.6146 141.128 13.3357 140.737 13.1125C140.346 12.8893 139.816 12.7777 139.146 12.7777C138.476 12.7777 137.946 12.9172 137.528 13.1683C137.109 13.4194 136.802 13.7541 136.551 14.1726C136.328 14.5911 136.16 15.0654 136.076 15.5676C135.993 16.0976 135.965 16.6277 135.965 17.1578V26.8108H131.22V17.102C131.22 16.5998 131.22 16.0697 131.193 15.5676C131.193 15.0654 131.081 14.5911 130.914 14.1726C130.746 13.7541 130.467 13.4194 130.076 13.1404C129.686 12.8614 129.1 12.7498 128.346 12.7498C128.123 12.7498 127.816 12.8056 127.453 12.8893C127.09 13.0009 126.727 13.1683 126.393 13.4473C126.058 13.7262 125.751 14.1168 125.499 14.6469C125.248 15.177 125.137 15.8466 125.137 16.7114V26.755H120.392V9.45772H124.886L124.83 9.48562ZM158.374 31.1072C157.453 31.6931 156.198 32 154.551 32C154.049 32 153.574 32 153.1 31.9442C152.625 31.8884 152.123 31.8605 151.649 31.8326V27.9268C152.095 27.9826 152.542 28.0105 153.016 28.0663C153.491 28.1221 153.965 28.1221 154.412 28.0942C155.025 28.0384 155.5 27.7873 155.807 27.3688C156.198 26.8108 156.142 26.0575 156.002 25.7228L149.946 9.48562H154.998L158.905 21.3426H158.96L162.756 9.48562H167.668L160.44 28.9311C159.909 29.9634 159.267 30.5214 158.346 31.1072H158.374ZM177.407 14.8422C177.407 13.1125 177.658 11.4664 178.189 9.932C178.691 8.39756 179.444 7.08631 180.421 5.94246C181.398 4.79861 182.598 3.93374 183.993 3.29207C185.417 2.65039 187.007 2.31561 188.793 2.31561C190.189 2.31561 191.417 2.5109 192.449 2.87358C193.482 3.23627 194.347 3.71055 195.045 4.24063C195.742 4.79861 196.328 5.38448 196.775 6.02616C197.221 6.66783 197.556 7.2816 197.807 7.83958C198.059 8.39756 198.198 8.89974 198.282 9.31822C198.366 9.7367 198.421 9.9599 198.421 10.0157H196.942C196.775 9.01133 196.468 8.11857 195.966 7.3095C195.463 6.50044 194.849 5.83086 194.124 5.27289C193.398 4.71491 192.561 4.29643 191.668 3.98954C190.775 3.71055 189.798 3.54316 188.793 3.54316C187.231 3.54316 185.835 3.85004 184.607 4.43592C183.379 5.0497 182.347 5.85876 181.482 6.86312C180.644 7.86748 179.975 9.06713 179.528 10.4342C179.082 11.8012 178.858 13.252 178.858 14.7864C178.858 16.3208 179.082 17.7716 179.528 19.1386C179.975 20.5057 180.617 21.6774 181.482 22.7097C182.319 23.714 183.379 24.5231 184.607 25.1369C185.835 25.7507 187.231 26.0296 188.793 26.0296C189.966 26.0296 191.054 25.7786 192.059 25.3043C193.063 24.83 193.956 24.1883 194.71 23.4072C195.463 22.626 196.077 21.7053 196.524 20.6731C196.97 19.6408 197.249 18.5527 197.305 17.4368H198.784C198.645 18.8596 198.31 20.1709 197.724 21.3984C197.166 22.5981 196.44 23.6582 195.547 24.5231C194.654 25.388 193.649 26.0854 192.477 26.5876C191.305 27.0898 190.077 27.313 188.766 27.313C186.979 27.313 185.389 26.9782 183.965 26.3365C182.542 25.6949 181.342 24.8021 180.393 23.6861C179.444 22.5702 178.691 21.231 178.161 19.6966C177.658 18.1622 177.379 16.544 177.379 14.7864L177.407 14.8422ZM204.98 14.2005H205.091C205.147 13.0288 205.538 12.3313 205.956 11.8291C206.375 11.3269 206.877 10.9085 207.463 10.5458C208.049 10.1831 208.719 9.9041 209.445 9.7367C210.17 9.54141 210.924 9.45772 211.705 9.48562V10.769C211.036 10.6853 210.282 10.769 209.417 10.9643C208.552 11.1874 207.743 11.6896 206.961 12.4429C206.654 12.7777 206.375 13.1125 206.152 13.4194C205.929 13.7262 205.733 14.0889 205.566 14.4516C205.398 14.8422 205.287 15.2607 205.203 15.735C205.119 16.2092 205.063 16.7672 205.036 17.4089V26.8108H203.752V9.56931H205.036V14.1726L204.98 14.2005ZM215.557 18.3575V18.5527C215.557 19.5571 215.696 20.5057 215.947 21.4263C216.226 22.347 216.617 23.1561 217.147 23.8256C217.678 24.4952 218.347 25.0532 219.129 25.4717C219.938 25.8623 220.859 26.0854 221.892 26.0854C223.622 26.0854 224.989 25.6391 225.994 24.7184C226.999 23.8256 227.696 22.5702 228.087 20.952H229.371C228.98 22.9608 228.171 24.4952 226.915 25.5833C225.659 26.6434 223.985 27.2014 221.919 27.2014C220.636 27.2014 219.547 26.9782 218.599 26.5039C217.65 26.0296 216.868 25.4159 216.226 24.6347C215.585 23.8535 215.11 22.905 214.803 21.8169C214.496 20.7289 214.329 19.5571 214.329 18.3296C214.329 17.102 214.496 15.9582 214.803 14.8701C215.138 13.7541 215.612 12.8056 216.254 11.9686C216.896 11.1316 217.705 10.4621 218.682 9.9599C219.659 9.45772 220.803 9.20663 222.115 9.20663C223.315 9.20663 224.375 9.42982 225.324 9.8762C226.245 10.3226 227.027 10.9364 227.64 11.6896C228.254 12.4708 228.729 13.3636 229.064 14.3679C229.399 15.3723 229.538 16.4603 229.538 17.6321C229.538 17.7437 229.538 17.8832 229.538 18.0227C229.538 18.1622 229.538 18.2738 229.538 18.3854H215.612L215.557 18.3575ZM228.227 17.2415C228.171 16.2929 228.031 15.4281 227.752 14.5911C227.473 13.7541 227.082 13.0288 226.552 12.3871C226.022 11.7454 225.38 11.2432 224.626 10.8527C223.873 10.4621 223.008 10.2947 222.059 10.2947C221.026 10.2947 220.133 10.49 219.352 10.8806C218.571 11.2711 217.901 11.7733 217.371 12.415C216.84 13.0567 216.422 13.782 216.143 14.6469C215.864 15.4839 215.668 16.3766 215.612 17.2694H228.227V17.2415ZM245.948 22.5702H245.892C245.669 23.7977 245.39 24.3557 245.027 24.8021C244.636 25.2485 244.19 25.667 243.631 26.0296C243.073 26.3923 242.459 26.6713 241.762 26.8666C241.064 27.0619 240.31 27.1735 239.473 27.1735C237.631 27.1735 236.236 26.7829 235.231 25.9738C234.227 25.1927 233.724 23.9651 233.724 22.3191C233.724 21.3147 233.92 20.5057 234.338 19.864C234.729 19.2223 235.259 18.7201 235.873 18.3575C236.487 17.9948 237.157 17.7158 237.91 17.5763C238.664 17.4368 239.389 17.2973 240.059 17.2415L242.041 17.0741C242.962 17.0183 243.687 16.9067 244.19 16.7672C244.72 16.6277 245.111 16.4324 245.39 16.1534C245.669 15.9024 245.836 15.5676 245.892 15.177C245.948 14.7864 246.004 14.2842 246.004 13.6704C246.004 13.1962 245.92 12.7777 245.724 12.3592C245.557 11.9686 245.278 11.6059 244.887 11.299C244.497 10.9922 244.022 10.7411 243.408 10.5737C242.794 10.4063 242.069 10.2947 241.203 10.2947C239.669 10.2947 238.413 10.6853 237.464 11.4385C236.515 12.1918 235.985 13.3357 235.901 14.898H234.617C234.701 13.0009 235.315 11.578 236.431 10.6295C237.548 9.68091 239.166 9.20663 241.231 9.20663C243.297 9.20663 244.831 9.62511 245.78 10.4342C246.729 11.2432 247.204 12.3034 247.204 13.6425V23.6582C247.204 23.9093 247.204 24.1604 247.204 24.3836C247.204 24.6068 247.259 24.8579 247.315 25.0532C247.371 25.2485 247.483 25.4159 247.65 25.5275C247.818 25.6391 248.041 25.7228 248.32 25.7228C248.543 25.7228 248.85 25.6949 249.269 25.6112V26.6713C248.934 26.755 248.599 26.8108 248.236 26.8108C247.734 26.8108 247.315 26.755 247.008 26.6155C246.701 26.476 246.478 26.3086 246.311 26.0854C246.143 25.8623 246.059 25.6112 246.004 25.3043C245.948 24.9974 245.92 24.6626 245.92 24.3278V22.626L245.948 22.5702ZM245.948 16.9904C245.641 17.381 245.166 17.6321 244.524 17.7716C243.883 17.9111 243.185 17.9948 242.403 18.0785L240.255 18.2738C239.641 18.3296 238.999 18.4412 238.385 18.5527C237.771 18.6643 237.185 18.8875 236.682 19.1665C236.18 19.4455 235.762 19.864 235.455 20.3662C235.148 20.8684 234.98 21.51 234.98 22.3191C234.98 23.6024 235.371 24.5231 236.18 25.1369C236.989 25.7507 238.078 26.0575 239.501 26.0575C240.924 26.0575 242.097 25.8065 242.962 25.2764C243.799 24.7463 244.469 24.1604 244.915 23.4629C245.362 22.7655 245.641 22.1238 245.78 21.4821C245.892 20.8405 245.976 20.422 245.976 20.1988V16.9904H245.948ZM259.678 10.6574H255.939V22.6818C255.939 23.3793 256.022 23.9093 256.162 24.3278C256.329 24.7184 256.553 25.0253 256.887 25.2485C257.222 25.4717 257.613 25.5833 258.06 25.6391C258.506 25.6949 259.036 25.6949 259.65 25.667V26.7829C259.008 26.8387 258.367 26.8108 257.753 26.7829C257.139 26.755 256.608 26.5597 256.134 26.2807C255.659 26.0017 255.297 25.5833 255.018 25.0253C254.739 24.4673 254.627 23.6861 254.655 22.7097V10.6853H251.473V9.56931H254.655V4.21273H255.939V9.56931H259.678V10.6853V10.6574ZM265.064 6.30514V2.87358H266.348V6.33304H265.064V6.30514ZM265.064 26.755V9.56931H266.348V26.7829H265.064V26.755ZM270.981 18.1622C270.981 16.9346 271.148 15.7908 271.511 14.7027C271.846 13.6146 272.376 12.6661 273.046 11.8291C273.716 10.9922 274.553 10.3505 275.53 9.8762C276.506 9.40192 277.651 9.15083 278.906 9.15083C280.162 9.15083 281.306 9.40192 282.283 9.8762C283.26 10.3505 284.097 11.0201 284.767 11.8291C285.437 12.6661 285.939 13.6146 286.302 14.7027C286.637 15.7908 286.832 16.9346 286.832 18.1622C286.832 19.3897 286.665 20.5615 286.302 21.6495C285.967 22.7376 285.437 23.6861 284.767 24.5231C284.097 25.3322 283.26 25.9738 282.283 26.476C281.306 26.9503 280.162 27.2014 278.906 27.2014C277.651 27.2014 276.506 26.9503 275.53 26.476C274.553 26.0017 273.716 25.3601 273.046 24.5231C272.376 23.6861 271.874 22.7655 271.511 21.6495C271.176 20.5615 270.981 19.3897 270.981 18.1622V18.1622ZM272.264 18.1622C272.264 19.1944 272.404 20.1709 272.711 21.1194C272.99 22.068 273.436 22.905 273.995 23.6582C274.553 24.3836 275.25 24.9695 276.06 25.4159C276.897 25.8622 277.846 26.0575 278.906 26.0575C279.967 26.0575 280.916 25.8344 281.753 25.4159C282.59 24.9695 283.26 24.3836 283.818 23.6582C284.376 22.9329 284.795 22.068 285.102 21.1194C285.381 20.1709 285.548 19.1944 285.548 18.1622C285.548 17.1299 285.409 16.1534 285.102 15.2049C284.823 14.2563 284.376 13.4194 283.818 12.6661C283.26 11.9407 282.562 11.3548 281.753 10.9085C280.916 10.4621 279.967 10.2668 278.906 10.2668C277.846 10.2668 276.897 10.49 276.06 10.9085C275.223 11.3269 274.553 11.9407 273.995 12.6661C273.436 13.3915 273.018 14.2563 272.711 15.2049C272.432 16.1534 272.264 17.1299 272.264 18.1622ZM291.186 9.56931H292.469V14.0331H292.525C292.637 12.973 293.055 12.0244 293.474 11.5222C293.893 11.0201 294.367 10.6016 294.925 10.2389C295.483 9.8762 296.069 9.62511 296.711 9.42982C297.353 9.26242 298.023 9.15083 298.693 9.15083C299.697 9.15083 300.562 9.26242 301.26 9.51351C301.958 9.7646 302.544 10.0715 302.99 10.49C303.437 10.8806 303.8 11.3548 304.051 11.857C304.302 12.3592 304.497 12.8614 304.609 13.3915C304.721 13.8936 304.776 14.3958 304.804 14.8701C304.832 15.3444 304.832 15.7629 304.832 16.1255V26.7829H303.549V15.9024C303.549 15.4839 303.521 14.9538 303.437 14.2842C303.381 13.6425 303.186 13.0288 302.851 12.415C302.516 11.8291 302.042 11.3269 301.372 10.8806C300.702 10.4621 299.809 10.2389 298.637 10.2389C297.66 10.2389 296.795 10.4063 296.014 10.769C295.26 11.1316 294.618 11.6338 294.06 12.2476C293.53 12.8893 293.111 13.6425 292.832 14.5353C292.553 15.4281 292.414 16.3766 292.414 17.4368V26.755H291.13V9.56931H291.186ZM310.553 21.0636C310.609 21.8727 310.777 22.5702 311.084 23.184C311.391 23.7977 311.809 24.3278 312.311 24.7463C312.814 25.1927 313.4 25.4996 314.07 25.7228C314.739 25.9459 315.465 26.0575 316.246 26.0575C316.805 26.0575 317.391 26.0017 318.032 25.918C318.674 25.8065 319.26 25.6391 319.819 25.3601C320.377 25.0811 320.823 24.7184 321.186 24.2441C321.549 23.7698 321.716 23.1561 321.716 22.4307C321.716 21.4821 321.437 20.7568 320.851 20.2546C320.265 19.7524 319.539 19.3897 318.646 19.1107C317.753 18.8317 316.805 18.6364 315.8 18.469C314.795 18.3017 313.846 18.0506 312.953 17.7158C312.06 17.381 311.335 16.9067 310.749 16.2929C310.163 15.6792 309.884 14.7864 309.884 13.5867C309.884 12.7498 310.079 12.0244 310.442 11.4664C310.832 10.9085 311.307 10.4342 311.893 10.0994C312.479 9.7646 313.149 9.51351 313.874 9.37402C314.6 9.23452 315.353 9.15083 316.079 9.15083C316.972 9.15083 317.809 9.26242 318.591 9.45772C319.372 9.65301 320.042 9.98779 320.628 10.4342C321.214 10.8806 321.633 11.4385 321.967 12.136C322.302 12.8335 322.442 13.6704 322.442 14.6469H321.158C321.158 13.8657 321.019 13.1962 320.767 12.6382C320.516 12.0802 320.153 11.6338 319.707 11.2711C319.26 10.9085 318.702 10.6574 318.088 10.49C317.474 10.3226 316.805 10.2389 316.079 10.2389C315.493 10.2389 314.907 10.2947 314.321 10.4063C313.735 10.5179 313.205 10.7132 312.73 10.9643C312.256 11.2432 311.865 11.578 311.586 11.9965C311.279 12.415 311.139 12.9451 311.139 13.531C311.139 14.2284 311.307 14.7864 311.642 15.2049C311.977 15.6234 312.423 15.9582 312.953 16.2371C313.484 16.5161 314.125 16.7114 314.795 16.8509C315.465 17.0183 316.163 17.1578 316.86 17.3252C317.698 17.4926 318.507 17.66 319.26 17.8832C320.014 18.1064 320.656 18.3854 321.214 18.748C321.772 19.1107 322.191 19.585 322.498 20.1709C322.805 20.7568 322.972 21.4821 322.972 22.3749C322.972 23.2677 322.749 24.0767 322.33 24.6905C321.912 25.3043 321.381 25.7786 320.712 26.1412C320.07 26.5039 319.344 26.755 318.563 26.9224C317.781 27.0619 317 27.1456 316.246 27.1456C315.27 27.1456 314.349 27.0061 313.511 26.755C312.674 26.5039 311.949 26.1133 311.307 25.5833C310.693 25.0532 310.191 24.4115 309.828 23.6582C309.465 22.905 309.27 22.0122 309.27 21.0078H310.553V21.0636ZM63.88 9.51351C63.3218 8.03487 62.5683 6.80732 61.5916 5.83086C60.6148 4.8544 59.4706 4.10113 58.1311 3.62685C56.7915 3.12467 55.3682 2.90148 53.8333 2.90148H43.5076V7.3095H52.5217C53.8054 7.3095 54.8938 7.5048 55.7868 7.86748C56.6799 8.23017 57.3776 8.76024 57.9078 9.45772C58.4381 10.1552 58.8288 10.9922 59.052 11.9407C59.2753 12.9172 59.4148 14.0052 59.4148 15.2049C59.4148 16.5161 59.2474 17.6321 58.9125 18.5527C58.5776 19.4734 58.1311 20.1988 57.5729 20.7847C57.0148 21.3426 56.3729 21.7611 55.6752 22.0122C54.9775 22.2633 54.224 22.3749 53.4705 22.3749H48.7821V9.45772H43.5355V26.755H53.8612C55.7031 26.755 57.2938 26.4481 58.6334 25.8344C59.973 25.2206 61.1172 24.3836 62.0102 23.2956C62.9032 22.2354 63.6009 20.952 64.0474 19.4734C64.494 17.9948 64.7172 16.4045 64.7172 14.6469C64.7172 12.6661 64.4381 10.9364 63.9079 9.45772L63.88 9.51351ZM7.67453 3.18047H0V0H8.93036L13.5072 4.29643L11.1909 6.47254L7.67453 3.18047V3.18047ZM16.6607 11.6338L20.2049 14.9538L7.67453 26.9782H0V30.1587H8.93036L23.3864 16.5719V13.5867L18.977 9.42982L16.6886 11.6338H16.6607ZM18.8933 23.6861L16.577 25.8623L21.1538 30.1587H30.0562V26.9782H22.3817L18.8654 23.6861H18.8933ZM21.1538 0L6.69777 13.5867V16.5719L11.1071 20.7289L13.3955 18.5248L9.8513 15.2049L22.4096 3.18047H30.0842V0H21.1817H21.1538Z" fill="black"/>
</svg>
