<svg width="240" height="48" viewBox="0 0 240 48" fill="none" xmlns="http://www.w3.org/2000/svg">
<g clip-path="url(#clip0_1354_509)">
<path d="M44.2534 12.8677H51.7678C55.206 12.8677 57.8467 13.6819 59.6898 15.2926C61.533 16.921 62.4546 19.2397 62.4546 22.2842C62.4546 25.3286 61.4976 27.5765 59.6012 29.2226C57.7049 30.8687 55.0465 31.7006 51.6438 31.7006H44.2534V12.8677ZM49.1626 27.665H51.4665C55.3655 27.665 57.315 25.8773 57.315 22.2842C57.315 18.691 55.3655 16.9033 51.4665 16.9033H49.1626V27.665ZM70.6956 32.1077C68.6752 32.1077 67.1334 31.5944 66.0877 30.5678C65.0244 29.5412 64.4927 28.0544 64.4927 26.0897V18.9034H68.9588V25.9481C68.9588 26.6915 69.1006 27.2402 69.3841 27.5942C69.6677 27.9482 70.1108 28.1252 70.731 28.1252C71.3513 28.1252 71.7412 27.9482 72.0071 27.6119C72.2729 27.2579 72.4147 26.7092 72.4147 25.9481V18.9034H76.8808V26.072C76.8808 28.0544 76.3491 29.5589 75.3035 30.5678C74.2579 31.5767 72.716 32.09 70.6956 32.09V32.1077ZM79.3088 18.9211H83.6509L83.704 20.4787C84.0408 19.8592 84.5193 19.3636 85.1573 19.0273C85.7953 18.691 86.5396 18.514 87.4081 18.514C88.2765 18.514 88.9854 18.691 89.6234 19.0627C90.2437 19.4344 90.7399 19.9477 91.1121 20.6203C91.4843 19.9654 91.9982 19.4344 92.7071 19.0627C93.3983 18.691 94.1958 18.4963 95.1174 18.4963C96.6061 18.4963 97.7404 18.9565 98.5024 19.8769C99.2645 20.7973 99.6544 22.1426 99.6544 23.8949V31.6829H95.206V24.7445C95.206 23.9657 95.0642 23.3993 94.7984 23.0276C94.5326 22.6559 94.1072 22.4789 93.5224 22.4789C92.9375 22.4789 92.4944 22.6913 92.1754 23.1161C91.8564 23.5409 91.6969 24.1427 91.6969 24.9392V31.7006H87.2485V24.7622C87.2485 23.9834 87.1068 23.417 86.8409 23.0453C86.5751 22.6736 86.1497 22.4966 85.5826 22.4966C84.9801 22.4966 84.537 22.709 84.218 23.1338C83.899 23.5586 83.7395 24.1604 83.7395 24.9569V31.7183H79.2911V18.9034L79.3088 18.9211ZM102.082 18.9211H106.424L106.478 20.4787C106.814 19.8592 107.293 19.3636 107.931 19.0273C108.569 18.691 109.313 18.514 110.182 18.514C111.05 18.514 111.759 18.691 112.397 19.0627C113.017 19.4344 113.514 19.9477 113.886 20.6203C114.258 19.9654 114.772 19.4344 115.481 19.0627C116.172 18.691 116.969 18.4963 117.891 18.4963C119.38 18.4963 120.514 18.9565 121.276 19.8769C122.038 20.7973 122.428 22.1426 122.428 23.8949V31.6829H117.98V24.7445C117.98 23.9657 117.838 23.3993 117.572 23.0276C117.306 22.6559 116.881 22.4789 116.296 22.4789C115.711 22.4789 115.268 22.6913 114.949 23.1161C114.63 23.5409 114.471 24.1427 114.471 24.9392V31.7006H110.022V24.7622C110.022 23.9834 109.88 23.417 109.615 23.0453C109.349 22.6736 108.923 22.4966 108.356 22.4966C107.754 22.4966 107.311 22.709 106.992 23.1338C106.673 23.5586 106.513 24.1604 106.513 24.9569V31.7183H102.065V18.9034L102.082 18.9211ZM128.436 30.9926L123.172 18.9211H128.064L130.669 26.2844L133.132 18.9211H137.918L130.226 36.6213H125.689L128.436 30.9749V30.9926ZM145.538 12.8854H150.483V20.4787L156.934 12.8854H162.889L154.807 21.8771L163.669 31.7183H157.218L150.501 23.771V31.7183H145.556V12.8677L145.538 12.8854ZM168.542 16.921C167.833 16.921 167.231 16.6909 166.752 16.2307C166.274 15.7705 166.026 15.2041 166.026 14.5315C166.026 13.8589 166.256 13.2925 166.752 12.8146C167.231 12.3544 167.833 12.1243 168.542 12.1243C169.251 12.1243 169.854 12.3544 170.332 12.8146C170.811 13.2748 171.059 13.8412 171.059 14.5315C171.059 15.2218 170.811 15.7705 170.332 16.2307C169.854 16.6909 169.251 16.921 168.542 16.921ZM166.309 18.9211H170.775V31.7006H166.309V18.9034V18.9211ZM175.472 22.5143H173.31V18.9211H175.472V15.6289H179.938V18.9211H182.561V22.5143H179.938V31.7006H175.472V22.5143ZM190.997 32.0546C189.615 32.0546 188.374 31.7891 187.311 31.2581C186.247 30.7271 185.414 29.9483 184.812 28.9394C184.209 27.9305 183.908 26.7446 183.908 25.364C183.908 24.0719 184.191 22.9214 184.776 21.8948C185.361 20.8681 186.176 20.0539 187.257 19.4698C188.339 18.868 189.579 18.5848 190.979 18.5848C191.759 18.5848 192.556 18.6733 193.354 18.8503C194.169 19.0273 194.843 19.2574 195.357 19.5406L194.843 23.2754C193.779 22.7798 192.681 22.532 191.546 22.532C190.554 22.532 189.774 22.7798 189.207 23.2754C188.64 23.771 188.356 24.4436 188.356 25.3109C188.356 26.1782 188.64 26.8685 189.225 27.3464C189.809 27.842 190.607 28.0721 191.635 28.0721C192.663 28.0721 193.797 27.8243 195.002 27.3287L195.445 30.9749C194.86 31.3112 194.187 31.559 193.389 31.7537C192.61 31.9484 191.812 32.0369 190.997 32.0369V32.0546ZM197.962 11.6287H202.428V20.284C202.8 19.7176 203.296 19.2928 203.917 18.9919C204.537 18.691 205.264 18.5317 206.043 18.5317C207.514 18.5317 208.631 18.9919 209.375 19.9123C210.12 20.8327 210.51 22.178 210.51 23.9303V31.7183H206.043V24.7799C206.043 23.2577 205.476 22.4966 204.324 22.4966C203.704 22.4966 203.243 22.709 202.907 23.1338C202.57 23.5586 202.41 24.1604 202.41 24.9569V31.7183H197.944V11.6287H197.962ZM220.097 32.09C218.538 32.09 217.191 31.8245 216.021 31.2758C214.852 30.7271 213.965 29.966 213.327 28.9394C212.689 27.9305 212.37 26.7092 212.37 25.2932C212.37 24.0011 212.636 22.8506 213.186 21.824C213.735 20.7973 214.515 19.9831 215.525 19.399C216.535 18.8149 217.723 18.514 219.07 18.514C220.984 18.514 222.508 19.0804 223.642 20.2309C224.776 21.3814 225.343 22.9391 225.343 24.9038C225.343 25.4879 225.29 26.0012 225.202 26.4437H216.766C216.996 27.1871 217.439 27.7358 218.077 28.0898C218.715 28.4438 219.584 28.6208 220.7 28.6208C221.409 28.6208 222.136 28.55 222.862 28.3907C223.589 28.2491 224.227 28.0367 224.794 27.7712L225.184 31.1165C224.51 31.4351 223.731 31.6652 222.844 31.8422C221.958 32.0192 221.054 32.09 220.097 32.09ZM221.196 23.771C221.125 23.1161 220.895 22.5851 220.505 22.2134C220.115 21.8417 219.619 21.647 218.999 21.647C217.74 21.647 216.978 22.355 216.695 23.771H221.179H221.196ZM227.452 18.9211H231.812L231.865 20.5141C232.184 19.8946 232.663 19.399 233.301 19.045C233.939 18.691 234.683 18.5317 235.534 18.5317C237.005 18.5317 238.121 18.9919 238.866 19.9123C239.61 20.8327 240 22.178 240 23.9303V31.7183H235.534V24.7799C235.534 23.2577 234.967 22.4966 233.815 22.4966C233.194 22.4966 232.734 22.709 232.397 23.1338C232.06 23.5586 231.901 24.1604 231.901 24.9569V31.7183H227.435V18.9034L227.452 18.9211Z" fill="#101010"/>
<path d="M17.6695 41.2941C27.4281 41.2941 35.339 33.3933 35.339 23.6471C35.339 13.9009 27.4281 6 17.6695 6C7.91089 6 0 13.9009 0 23.6471C0 33.3933 7.91089 41.2941 17.6695 41.2941Z" fill="#F8861D"/>
<path d="M27.098 23.647C27.098 28.8509 22.88 33.0635 17.6695 33.0635C12.4591 33.0635 8.24109 28.8509 8.24109 23.647" fill="white"/>
<path d="M14.6567 23.647H17.6696L12.7781 14.2483H9.76526L14.6567 23.647Z" fill="white"/>
<path d="M17.6696 23.647H20.6824L25.5916 14.2483H22.5787L17.6696 23.647Z" fill="white"/>
</g>
<defs>
<clipPath id="clip0_1354_509">
<rect width="240" height="48" fill="white"/>
</clipPath>
</defs>
</svg>
